<svg id="Group_19465" data-name="Group 19465" xmlns="http://www.w3.org/2000/svg" width="19.443" height="25.252" viewBox="0 0 19.443 25.252">
  <g id="Group_7758" data-name="Group 7758" transform="translate(0 0)">
    <path id="Path_11024" data-name="Path 11024" d="M149.477,183.54v3.585l12.974,7.34,2.561-1.707Z" transform="translate(-147.569 -171.847)" fill="#fff" fill-rule="evenodd"/>
    <path id="Path_11025" data-name="Path 11025" d="M149.477,203.4l.066,3.658,8.365,4.95,3.585-1.707Z" transform="translate(-147.569 -186.761)" fill="#fff" fill-rule="evenodd"/>
    <g id="Group_7757" data-name="Group 7757">
      <path id="Path_11026" data-name="Path 11026" d="M160.7,143.09l-1.913,2.057s1.033,8.561,1.069,10.934l-5.548-3.213-.085-5.664c-2.731-2.9-4.78,0-4.78,0v2.731l-.005.114-5.8-3.358c.341-1.366.341-1.366.6-1.6l-1.864-2a26.178,26.178,0,0,1-.558-5.637c0-.013.015-.024.019-.031,1.209-.224,2.521-.4,3.9-.531v3.459h3.2v-3.674c.85-.036,1.712-.056,2.593-.056s1.746.02,2.6.056v3.674h3.206v-3.459c1.384.135,2.7.307,3.9.531.005.007.017.017.017.031A26.173,26.173,0,0,1,160.7,143.09Z" transform="translate(-141.819 -136.62)" fill="#fff"/>
    </g>
  </g>
</svg>
