<svg id="logo" xmlns="http://www.w3.org/2000/svg" width="128.967" height="37.161" viewBox="0 0 128.967 37.161">
  <g id="Group_984" data-name="Group 984" transform="translate(0)">
    <g id="Group_982" data-name="Group 982">
      <g id="Group_981" data-name="Group 981">
        <path id="Path_2201" data-name="Path 2201" d="M135.8,404.9c-.01,1.777-.016,3.506-.011,5.027h12.78c0-1.522,0-3.25-.016-5.027Z" transform="translate(-133.849 -385.754)" fill="#fff"/>
        <path id="Path_2202" data-name="Path 2202" d="M135.9,394.089c-.02,1.548-.039,3.271-.054,5.027H148.56c-.017-1.756-.036-3.479-.057-5.027Z" transform="translate(-133.872 -381.557)" fill="#fff"/>
        <path id="Path_2203" data-name="Path 2203" d="M145.84,376.871h-2.747v-3.225c-.728-.031-1.465-.049-2.226-.049s-1.493.018-2.221.049v3.225H135.9v-3.036c-1.186.12-2.31.27-3.346.466,0,.006-.016.016-.016.028a23.5,23.5,0,0,0,.478,4.948l1.642,1.806s-.023,1.379-.051,3.462h12.528c-.03-2.083-.055-3.462-.055-3.462l1.64-1.806a23.515,23.515,0,0,0,.478-4.948.049.049,0,0,0-.014-.028c-1.035-.2-2.158-.346-3.345-.466Z" transform="translate(-132.539 -373.597)" fill="#fff"/>
        <path id="Path_2204" data-name="Path 2204" d="M135.982,418.506a22.805,22.805,0,0,0,6.208.867,28.62,28.62,0,0,0,6.214-.867,13.382,13.382,0,0,0,.159-2.8H135.822A13.446,13.446,0,0,0,135.982,418.506Z" transform="translate(-133.862 -389.952)" fill="#fff"/>
      </g>
    </g>
    <g id="Group_983" data-name="Group 983" transform="translate(26.158 0.149)">
      <rect id="Rectangle_710" data-name="Rectangle 710" width="3.335" height="20.988" transform="translate(0.078 7.953)" fill="#fff"/>
      <path id="Path_2205" data-name="Path 2205" d="M201.45,386.128a10.907,10.907,0,0,0-7.685,3.58v-3.142h-3.378v20.988h3.378v-15.1c2.135-2.068,4.191-3.378,6.638-3.378,2.6,0,3.765,1.311,3.765,4.092v14.391h3.338V392.413C207.505,388.434,205.37,386.128,201.45,386.128Z" transform="translate(-182.005 -378.614)" fill="#fff"/>
      <path id="Path_2206" data-name="Path 2206" d="M230.058,374.626H226.72V382.1h-3.57v2.822h3.57V398c0,3.662,1.4,5.369,5.706,5.369a18.022,18.022,0,0,0,2.911-.24v-2.822a8.241,8.241,0,0,1-2.1.281c-2.484,0-3.184-1.116-3.184-3.34V384.921h5.318V382.1h-5.318Z" transform="translate(-195.206 -374.146)" fill="#fff"/>
      <path id="Path_2207" data-name="Path 2207" d="M256.543,386.128c-4.309,0-9.277,3.3-9.277,10.933,0,7.313,4.425,10.933,9.277,10.933a9.481,9.481,0,0,0,8.344-4.453l-1.939-1.75c-1.553,2.188-3.223,3.421-6.171,3.421-3.379,0-6.054-2.546-6.171-7.276H265.08v-.716C265.08,389.629,261.394,386.128,256.543,386.128Zm-5.861,9.145c.465-4.334,3.066-6.281,5.822-6.281,3.377,0,5.123,2.547,5.4,6.281Z" transform="translate(-204.923 -378.614)" fill="#fff"/>
      <path id="Path_2208" data-name="Path 2208" d="M289.051,386.128c-4.889,0-8.344,3.144-8.344,7.554a6.985,6.985,0,0,0,3.145,6.042c-1.478.874-2.561,2.026-2.561,3.381a2.765,2.765,0,0,0,1.745,2.665c-2.289.911-3.727,2.5-3.727,4.649,0,3.181,2.99,5.206,9.9,5.206,5.938,0,10.012-2.108,10.012-6.08,0-3.38-2.64-5.088-7.84-5.447l-4.193-.357c-2.172-.2-2.831-.594-2.831-1.468,0-.716.582-1.232,1.434-1.632a10.822,10.822,0,0,0,3.261.517c4.775,0,8.268-2.94,8.268-7.475a6.31,6.31,0,0,0-1.048-3.617,10.384,10.384,0,0,1,3.688-.677v-3.022a10.735,10.735,0,0,0-4.852,1.949A8.876,8.876,0,0,0,289.051,386.128Zm-3.609,20.317c.388.042.778.078,1.166.118l3.88.276c4.309.323,5.667,1.155,5.667,3.022,0,1.908-2.446,3.182-6.521,3.182-5.084,0-7.219-1.035-7.219-3.141C282.415,408.471,283.463,407.162,285.442,406.445Zm3.648-7.794c-3.141,0-5.2-1.866-5.2-4.889s1.979-4.97,5.16-4.97c3.3,0,5.161,1.909,5.161,4.97C294.212,396.785,292.236,398.651,289.09,398.651Z" transform="translate(-217.834 -378.614)" fill="#fff"/>
      <path id="Path_2209" data-name="Path 2209" d="M326.169,386.128c-5.045,0-9.547,3.7-9.547,10.933,0,7.2,4.54,10.933,9.547,10.933s9.51-3.737,9.51-10.933C335.679,389.824,331.176,386.128,326.169,386.128Zm0,18.961c-4.151,0-6.169-3.575-6.169-8.028,0-4.73,2.249-7.989,6.169-7.989,4.075,0,6.133,3.616,6.133,7.989C332.3,401.872,330.052,405.089,326.169,405.089Z" transform="translate(-232.869 -378.614)" fill="#fff"/>
      <path id="Path_2210" data-name="Path 2210" d="M179.843,375.632a1.748,1.748,0,1,1-1.748-1.791A1.769,1.769,0,0,1,179.843,375.632Z" transform="translate(-176.349 -373.841)" fill="#fff"/>
    </g>
  </g>
</svg>
